<svg xmlns="http://www.w3.org/2000/svg" width="28.514" height="29.75" viewBox="0 0 28.514 29.75"><defs><style>.a{fill:#003263;}.b{fill:#fff;}.c{fill:#b73636;}</style></defs><path class="a" d="M25.136,5.2c.031,0,.464.186.681.248a15.125,15.125,0,0,0,9.782.124,2.865,2.865,0,0,1,.31-.093v.279c.217,9.473-3.1,17.769-10.742,23.651l-.062.062-.093-.093C17.459,23.341,14.146,15.013,14.456,5.51V5.417c.062,0,.279.093.371.093a5.124,5.124,0,0,0,.65.186,15.815,15.815,0,0,0,9.287-.4c.155-.031.371-.093.371-.093" transform="translate(-10.772 -5.2)"/><path class="b" d="M36.781,8.3a20.592,20.592,0,0,1-.217,4.582H17.093a23.331,23.331,0,0,1-.186-4.644c2.724.991,6.253.712,9.008,0,.341-.093.867-.341.9-.341s.4.124.8.248c.279.093.588.186.8.248A15.628,15.628,0,0,0,36.781,8.3" transform="translate(-12.449 -7.064)"/><path class="b" d="M63.277,25.3a26.619,26.619,0,0,1-1.238,5.263H55.6V25.3Z" transform="translate(-39.193 -19.078)"/><path class="b" d="M32.182,61.306h0A24.177,24.177,0,0,1,27.6,55.3h4.582Z" transform="translate(-19.861 -39.791)"/><path class="b" d="M60.244,55.3a24.568,24.568,0,0,1-4.582,6.006l-.062.062v-.062l.031-6.006Z" transform="translate(-39.193 -39.791)"/><path class="b" d="M32.769,44.7l.371.8.867.093-.65.619.186.867-.774-.464L32,47.084l.186-.867L31.5,45.6l.867-.093Z" transform="translate(-22.553 -32.472)"/><path class="b" d="M46.238,44.7l.4.8.867.093-.681.619.186.867-.774-.464-.774.464.186-.867L45,45.6l.867-.093Z" transform="translate(-31.874 -32.472)"/><path class="b" d="M46.238,33l.4.836.867.093-.681.588.186.867-.774-.433-.774.433.186-.867L45,33.929l.867-.093Z" transform="translate(-31.874 -24.394)"/><path class="b" d="M46.238,56.4l.4.8.867.093-.681.619.186.836-.774-.433-.774.433.186-.836L45,57.3l.867-.093Z" transform="translate(-31.874 -40.55)"/><path class="b" d="M59.669,44.7l.371.8.867.093-.65.619.155.867-.743-.464-.774.464.155-.867L58.4,45.6l.867-.093Z" transform="translate(-41.126 -32.472)"/><path class="a" d="M22,14h.371v1.238c0,.279.031.619.5.619.5,0,.5-.341.5-.619V14h.371v1.362a.867.867,0,0,1-1.734,0V14Z" transform="translate(-15.994 -11.276)"/><path class="a" d="M29.3,14h1.734v.341h-.681v1.826h-.371V14.341H29.3Z" transform="translate(-21.034 -11.276)"/><path class="a" d="M39.1,14.379h.557c.186,0,.371.062.371.341a.329.329,0,0,1-.371.341H39.1Zm-.4,1.857h.4V15.4h.557c.619,0,.743-.4.743-.65,0-.279-.124-.65-.743-.65H38.7Z" transform="translate(-27.525 -11.345)"/><path class="a" d="M45.6,14.241h.619c.186,0,.371.062.371.341,0,.217-.124.341-.371.341H45.6ZM45.2,16.1h.371v-.9h.557c.341,0,.433.186.433.557a.558.558,0,0,0,.062.31h.4a.873.873,0,0,1-.124-.557c0-.341-.186-.433-.31-.464h0a.534.534,0,0,0,.341-.557c0-.371-.248-.588-.712-.588H45.2Z" transform="translate(-32.012 -11.207)"/><path class="a" d="M52.922,14.21c.464,0,.65.4.65.8s-.186.8-.65.8-.65-.4-.65-.8.186-.8.65-.8m0-.31A1.033,1.033,0,0,0,51.9,15.014a1.017,1.017,0,0,0,1.022,1.114,1.033,1.033,0,0,0,1.022-1.114A1.017,1.017,0,0,0,52.922,13.9" transform="translate(-36.638 -11.207)"/><path class="a" d="M59.671,15.317c0,.341.248.464.557.464.341,0,.464-.155.464-.341a.314.314,0,0,0-.186-.279c-.155-.062-.341-.093-.65-.186a.523.523,0,0,1-.464-.557c0-.433.4-.619.774-.619a.749.749,0,0,1,.836.681h-.371c-.031-.279-.217-.371-.464-.371-.186,0-.4.062-.4.279a.271.271,0,0,0,.248.279c.031,0,.5.124.619.155a.614.614,0,0,1,.433.557c0,.5-.433.681-.867.681-.5,0-.9-.248-.9-.774h.371Z" transform="translate(-41.747 -11.138)"/><rect class="a" width="0.371" height="2.136" transform="translate(19.72 2.724)"/><path class="a" d="M69.1,14h.557l.588,1.7h0l.588-1.7h.526v2.167h-.371V14.5h0L70.4,16.167h-.31L69.471,14.5h0v1.672H69.1Z" transform="translate(-48.514 -11.276)"/><path class="c" d="M20.679,28.481,18.76,29.6c.062.155.093.341.155.5l2.446-1.517v2.012h1.145V28.543l2.941,1.734v-.65l-1.734-1.083h1.734V27.305H23.465L25.446,26.1v-.712l-2.941,1.7V25.2H21.329v2.105L17.8,25.355a2.269,2.269,0,0,0,.124.681l1.981,1.238H18.141l.279,1.207Z" transform="translate(-13.095 -19.009)"/><path class="b" d="M18.426,25.2c1.3.774,2.879,1.734,2.879,1.734V25.2h.217v2.229h-3.25c-.031-.124-.031-.186-.062-.279h1.517s-1.207-.743-1.734-1.083l-.031-.186,2.105,1.269h.5L17.931,25.51s-.031-.217-.031-.31Z" transform="translate(-13.164 -19.009)"/><path class="b" d="M32.848,25.2v1.7l2.817-1.641v.248L32.879,27.15h.588l2.2-1.331v.526l-1.424.8h1.424V27.4H32.6V25.2Z" transform="translate(-23.313 -19.009)"/><path class="b" d="M22.834,37.567h-.217V35.8L20.3,37.226a1.29,1.29,0,0,0-.062-.186c.774-.433,2.322-1.424,2.322-1.424h-.5l-1.888,1.145c-.093-.279-.155-.5-.155-.5.031-.031,1.114-.65,1.114-.65H19.862L19.8,35.4h3.034Z" transform="translate(-14.475 -26.051)"/><path class="b" d="M35.734,35.548H34.279l1.455.929v.155l-1.765-1.083h-.5L35.734,37v.526c-.929-.557-1.888-1.145-2.817-1.672V37.5H32.7V35.3h3.065v.248Z" transform="translate(-23.382 -25.982)"/><path class="a" d="M31.111,66.132c-.031-.093-2.569-.867-2.848-1.022l.124-2.508c.031-.31-.031-.31-.062-.341h-.062a1.353,1.353,0,0,0-.31.186,25.931,25.931,0,0,1-4.736,3.189l-.155.093.433,2.446a18.358,18.358,0,0,1-6.563,1.114h0a19.509,19.509,0,0,1-6.594-1.083c.124-.8.248-1.61.4-2.415v-.062L10.68,65.7a26.38,26.38,0,0,1-3.034-1.857c-.31-.217-.588-.464-.9-.681A10.118,10.118,0,0,0,5.6,62.293a.74.74,0,0,0-.217-.093H5.324l-.031.062a1.231,1.231,0,0,0,0,.341c.062.371.124.774.186,1.145.093.557.217,1.114.279,1.672l-2.786.588L2.6,66.1l.279.31a26.864,26.864,0,0,0,3.56,2.6,11.493,11.493,0,0,1-.5,1.455c-.093.279-.217.557-.31.8l-.124.341.155.093,1.393.65a25.022,25.022,0,0,0,9.906,1.95h0A21.675,21.675,0,0,0,27.8,71.673l.155-.093-.062-.217c-.093-.279-.186-.526-.279-.8-.155-.464-.341-.96-.464-1.455a24.662,24.662,0,0,0,3.746-2.755c0,.062.248-.186.217-.217" transform="translate(-2.6 -44.555)"/><path class="b" d="M18.979,82.3l.526.186-.279,2.353h0l1.362-1.981.5.186-.217,2.384h0L22.2,83.445l.5.186L20.867,86.2l-.5-.186.217-2.384h0l-1.362,1.95L18.7,85.4Z" transform="translate(-13.716 -58.432)"/><path class="b" d="M31.288,86.7l2.136.433-.093.433-1.61-.31-.155.774,1.486.31-.093.4-1.486-.279-.186.867,1.641.31-.062.464L30.7,89.672Z" transform="translate(-22.001 -61.47)"/><path class="b" d="M40.648,88.1l.526.062,1.207,2.322h.031l.155-2.229.5.031-.217,3.034-.557-.062-1.207-2.322h0L40.9,91.165l-.5-.031Z" transform="translate(-28.698 -62.437)"/><path class="b" d="M51.49,88.731c.65-.031.96.526.991,1.083.031.588-.217,1.176-.867,1.207s-.96-.526-.991-1.083c-.031-.588.217-1.176.867-1.207m-.031-.433A1.492,1.492,0,0,0,50.1,89.969a1.438,1.438,0,0,0,1.517,1.486,1.492,1.492,0,0,0,1.362-1.672A1.456,1.456,0,0,0,51.459,88.3" transform="translate(-35.392 -62.573)"/><path class="b" d="M60.4,86.726l.557-.124,1.8,1.888h0l-.464-2.2.5-.093.65,2.941-.557.124-1.8-1.888H61.05l.464,2.2-.5.093Z" transform="translate(-42.507 -61.125)"/><path class="b" d="M72.433,84.488h0l.929,1.022-.867.341Zm-.371,2.848.5-.217-.031-.836,1.114-.464.557.65.526-.217-2.2-2.353L72,84.117Z" transform="translate(-50.516 -59.537)"/><path class="b" d="M20,75.522,22.291,74.5l-.371,2.105A5.059,5.059,0,0,1,20,75.522" transform="translate(-14.613 -53.047)"/><path class="b" d="M70.933,76.581a7.345,7.345,0,0,0,1.888-.712L70.5,74.6Z" transform="translate(-49.48 -53.116)"/></svg>