<svg xmlns="http://www.w3.org/2000/svg" width="16.5" height="16.5" viewBox="0 0 16.5 16.5"><defs><style>.a,.b{fill:none;stroke:#15233c;stroke-miterlimit:10;stroke-width:1.5px;}.b{stroke-linecap:square;}</style></defs><g transform="translate(-0.25 -0.25)"><path class="a" d="M1.345,17.59a7.474,7.474,0,0,0,2.555.456A7.363,7.363,0,0,0,8.673,16" transform="translate(-0.173 -7.5)"/><path class="a" d="M22.07,20.4a7.476,7.476,0,0,0-1.364-2.209A7.366,7.366,0,0,0,16,16" transform="translate(-7.5 -7.5)"/><path class="a" d="M14.721,1.006a7.453,7.453,0,0,0-.95,2.416A7.361,7.361,0,0,0,14.843,8.5" transform="translate(-6.343 -0.003)"/><path class="a" d="M14.459,18.525c-1.289,2.616-3.243,4.354-8.807,4.166" transform="translate(-2.326 -8.762)"/><path class="a" d="M7.761,11.826A8.449,8.449,0,0,1,6.581,3.952" transform="translate(-2.549 -1.476)"/><path class="a" d="M13.66,8.49c2.761-.628,5.3-.165,8.654,4.126" transform="translate(-6.33 -3.631)"/><circle class="b" cx="7.5" cy="7.5" r="7.5" transform="translate(1 1)"/></g></svg>