<svg xmlns="http://www.w3.org/2000/svg" width="55" height="55" viewBox="0 0 55 55">
  <g id="Group_6846" data-name="Group 6846" transform="translate(-160 -581)">
    <g id="Path_1728" data-name="Path 1728" transform="translate(160 581)" fill="none">
      <path d="M27.5,0A27.5,27.5,0,1,1,0,27.5,27.5,27.5,0,0,1,27.5,0Z" stroke="none"/>
      <path d="M 27.5 2 C 24.056640625 2 20.71733856201172 2.673938751220703 17.57485961914063 4.003101348876953 C 14.53858184814453 5.287330627441406 11.81129837036133 7.126258850097656 9.468780517578125 9.468780517578125 C 7.126258850097656 11.81129837036133 5.287330627441406 14.53858184814453 4.003101348876953 17.57485961914063 C 2.673938751220703 20.71733856201172 2 24.056640625 2 27.5 C 2 30.943359375 2.673938751220703 34.28266143798828 4.003101348876953 37.42514038085938 C 5.287330627441406 40.46141815185547 7.126258850097656 43.18869781494141 9.468780517578125 45.53121948242188 C 11.81129837036133 47.87374114990234 14.53858184814453 49.71266937255859 17.57485961914063 50.99689865112305 C 20.71733856201172 52.3260612487793 24.056640625 53 27.5 53 C 30.943359375 53 34.28266143798828 52.3260612487793 37.42514038085938 50.99689865112305 C 40.46141815185547 49.71266937255859 43.18869781494141 47.87374114990234 45.53121948242188 45.53121948242188 C 47.87374114990234 43.18869781494141 49.71266937255859 40.46141815185547 50.99689865112305 37.42514038085938 C 52.3260612487793 34.28266143798828 53 30.943359375 53 27.5 C 53 24.056640625 52.3260612487793 20.71733856201172 50.99689865112305 17.57485961914063 C 49.71266937255859 14.53858184814453 47.87374114990234 11.81129837036133 45.53121948242188 9.468780517578125 C 43.18869781494141 7.126258850097656 40.46141815185547 5.287330627441406 37.42514038085938 4.003101348876953 C 34.28266143798828 2.673938751220703 30.943359375 2 27.5 2 M 27.5 0 C 42.68782806396484 0 55 12.31216812133789 55 27.5 C 55 42.68782806396484 42.68782806396484 55 27.5 55 C 12.31216812133789 55 0 42.68782806396484 0 27.5 C 0 12.31216812133789 12.31216812133789 0 27.5 0 Z" stroke="none" fill="#fff"/>
    </g>
    <path id="Path_1727" data-name="Path 1727" d="M27.608,291.97a.922.922,0,0,0-.9.925v2.755H23.96a.769.769,0,0,0-.079,0,.915.915,0,0,0,.079,1.826H26.7v2.741a.918.918,0,0,0,1.837,0v-2.741h2.74a.915.915,0,1,0,0-1.826H28.54V292.9a.915.915,0,0,0-.933-.925Zm-5.356.021a.92.92,0,0,0-.1,0H15.238a11.183,11.183,0,0,0-2.4.15,4.151,4.151,0,0,0-2.079,1.161l-.015.014c-.563.574-1.084,1.22-1.554,1.686a2.389,2.389,0,0,1-.929.647H4.769a3.7,3.7,0,0,0-3.712,3.662v14.6A3.719,3.719,0,0,0,4.769,317.6H28.483A3.717,3.717,0,0,0,32.2,313.91V300.851a.918.918,0,1,0-1.837,0V313.91a1.852,1.852,0,0,1-1.879,1.865H4.77a1.849,1.849,0,0,1-1.876-1.865v-14.6a1.818,1.818,0,0,1,1.876-1.836H8.257a3.169,3.169,0,0,0,2.226-1.175c.581-.576,1.1-1.225,1.569-1.7a2.1,2.1,0,0,1,1.172-.679,10.735,10.735,0,0,1,2.015-.107h6.914a.915.915,0,1,0,.1-1.826Zm-5.6,9.146a4.571,4.571,0,1,0,4.577,4.577A4.584,4.584,0,0,0,16.657,301.137Zm0,1.837a2.74,2.74,0,1,1-2.744,2.74A2.736,2.736,0,0,1,16.657,302.974Z" transform="translate(170.943 302.615)" fill="#fff"/>
  </g>
</svg>
