<svg xmlns="http://www.w3.org/2000/svg" width="14.254" height="12.258" viewBox="0 0 14.254 12.258">
  <g id="danger_1_" data-name="danger (1)" transform="translate(0 -35.857)">
    <g id="Group_6453" data-name="Group 6453" transform="translate(0 35.857)">
      <g id="Group_6452" data-name="Group 6452" transform="translate(0 0)">
        <path id="Path_1494" data-name="Path 1494" d="M14.07,46.173l-5.847-9.7a1.281,1.281,0,0,0-2.193,0l-5.847,9.7a1.281,1.281,0,0,0,1.1,1.942H12.973a1.281,1.281,0,0,0,1.1-1.942Zm-.79.835a.353.353,0,0,1-.307.179H1.28a.353.353,0,0,1-.3-.535l5.847-9.7a.353.353,0,0,1,.6,0l5.847,9.7A.353.353,0,0,1,13.28,47.007Z" transform="translate(0 -35.857)" fill="#ffc400"/>
      </g>
    </g>
    <g id="Group_6455" data-name="Group 6455" transform="translate(6.502 39.675)">
      <g id="Group_6454" data-name="Group 6454">
        <path id="Path_1495" data-name="Path 1495" d="M234.206,173.005c-.353,0-.629.189-.629.525,0,1.025.121,2.5.121,3.521,0,.267.233.379.508.379.207,0,.5-.112.5-.379,0-1.025.121-2.5.121-3.521A.553.553,0,0,0,234.206,173.005Z" transform="translate(-233.578 -173.005)" fill="#ffc400"/>
      </g>
    </g>
    <g id="Group_6457" data-name="Group 6457" transform="translate(6.477 44.695)">
      <g id="Group_6456" data-name="Group 6456">
        <path id="Path_1496" data-name="Path 1496" d="M233.314,353.306a.663.663,0,0,0,0,1.326.663.663,0,0,0,0-1.326Z" transform="translate(-232.651 -353.306)" fill="#ffc400"/>
      </g>
    </g>
  </g>
</svg>
