<svg xmlns="http://www.w3.org/2000/svg" width="49.636" height="48" viewBox="0 0 49.636 48">
  <g id="Group_6534" data-name="Group 6534" transform="translate(-319 -395)">
    <g id="Rectangle_4606" data-name="Rectangle 4606" transform="translate(319 443) rotate(-90)" fill="none" stroke="#cd051c" stroke-width="1">
      <rect width="48" height="49.636" rx="9" stroke="none"/>
      <rect x="0.5" y="0.5" width="47" height="48.636" rx="8.5" fill="none"/>
    </g>
    <g id="trophy" transform="translate(333 409)">
      <path id="Path_1349" data-name="Path 1349" d="M5.167,6.7H4.533A2.533,2.533,0,0,1,2,4.167V1H5.167" fill="none" stroke="#cd051c" stroke-miterlimit="10" stroke-width="1.5"/>
      <path id="Path_1350" data-name="Path 1350" d="M25,6.7h.633a2.533,2.533,0,0,0,2.533-2.533V1H25" transform="translate(-8.433)" fill="none" stroke="#cd051c" stroke-miterlimit="10" stroke-width="1.5"/>
      <line id="Line_485" data-name="Line 485" y1="3.8" transform="translate(10.867 13.033)" fill="none" stroke="#cd051c" stroke-miterlimit="10" stroke-width="1.5"/>
      <path id="Path_1351" data-name="Path 1351" d="M12.7,13.033h0A5.7,5.7,0,0,1,7,7.333V1H18.4V7.333a5.7,5.7,0,0,1-5.7,5.7Z" transform="translate(-1.833)" fill="none" stroke="#cd051c" stroke-linecap="square" stroke-miterlimit="10" stroke-width="1.5"/>
      <path id="Path_1352" data-name="Path 1352" d="M17.867,29.167H9A3.167,3.167,0,0,1,12.167,26H14.7A3.167,3.167,0,0,1,17.867,29.167Z" transform="translate(-2.567 -9.167)" fill="none" stroke="#cd051c" stroke-linecap="square" stroke-miterlimit="10" stroke-width="1.5"/>
    </g>
  </g>
</svg>
