<svg xmlns="http://www.w3.org/2000/svg" width="14.801" height="15.018" viewBox="0 0 14.801 15.018">
  <g id="jyothi" transform="translate(-0.527 -0.433)">
    <path id="Path_1450" data-name="Path 1450" d="M4.091.45A.672.672,0,0,0,3.613,1.6L4.627,2.617l.882.882.518.518H3.647A2.781,2.781,0,0,0,1.338,5.559,6.485,6.485,0,0,0,.529,8.834v1.8a6.482,6.482,0,0,0,.809,3.274A2.781,2.781,0,0,0,3.647,15.45h8.56a2.785,2.785,0,0,0,2.311-1.542,6.482,6.482,0,0,0,.809-3.274v-1.8a6.485,6.485,0,0,0-.809-3.275,2.785,2.785,0,0,0-2.311-1.542H9.83l.518-.518.882-.882L12.244,1.6a.673.673,0,1,0-.951-.951L10.278,1.666,9.4,2.548,7.928,4.017,6.46,2.548l-.882-.882L4.564.652a.67.67,0,0,0-.472-.2ZM3.647,5.36h8.56c.372,0,.786.262,1.152.881a5.259,5.259,0,0,1,.623,2.592v1.8a5.259,5.259,0,0,1-.623,2.592c-.366.62-.781.881-1.152.881H3.647c-.372,0-.786-.261-1.152-.881a5.26,5.26,0,0,1-.62-2.592v-1.8A5.26,5.26,0,0,1,2.5,6.241C2.861,5.621,3.276,5.36,3.647,5.36ZM6.5,8.2a2.012,2.012,0,0,0-1.427.587L4.6,9.258a.673.673,0,1,0,.951.951h0l.475-.475a.663.663,0,0,1,.952,0l.476.476.476.476a2.029,2.029,0,0,0,2.855,0l.475-.475h0a.673.673,0,1,0-.952-.951l-.476.475a.663.663,0,0,1-.952,0L8.4,9.258l-.476-.476A2.011,2.011,0,0,0,6.5,8.2Z" fill="#000009"/>
  </g>
</svg>
