<svg xmlns="http://www.w3.org/2000/svg" xmlns:xlink="http://www.w3.org/1999/xlink" width="22" height="19" viewBox="0 0 22 19">
  <defs>
    <clipPath id="clip-scoring">
      <rect width="22" height="19"/>
    </clipPath>
  </defs>
  <g id="scoring" clip-path="url(#clip-scoring)">
    <g id="Group_1329" data-name="Group 1329" transform="translate(-0.179 -0.232)">
      <g id="icons8-whistle_1_" data-name="icons8-whistle (1)" transform="translate(1 1)">
        <path id="Path_953" data-name="Path 953" d="M12.839,6.364l1.838-3.408M11.2,5.9l.82-2.332m-9.436,7.46v2.518M13.456,8.7c2.913,0,5.251,2.751,5.128,6.06-.086,2.985-2.3,5.5-4.923,5.6a5.045,5.045,0,0,1-4.718-3.03,6.594,6.594,0,0,0-4.1-3.679l-.492-.14a4.188,4.188,0,0,0-1.066-.14h0a1.036,1.036,0,0,0-.86.559.81.81,0,0,1-.82.373.978.978,0,0,1-.7-.982L.941,9.628A.884.884,0,0,1,1.76,8.7H9.555V11.96L11.2,8.7Z" transform="translate(-0.899 -2.956)" fill="none" stroke="#d7d7d7" stroke-linecap="round" stroke-linejoin="round" stroke-miterlimit="10" stroke-width="1.5"/>
        <path id="Path_954" data-name="Path 954" d="M45.092,26a1.092,1.092,0,1,0,1.092,1.092A1.092,1.092,0,0,0,45.092,26Z" transform="translate(-26.317 -14.503)" fill="none" stroke="#d7d7d7" stroke-linecap="round" stroke-linejoin="round" stroke-miterlimit="10" stroke-width="1.5"/>
      </g>
    </g>
  </g>
</svg>
