<svg xmlns="http://www.w3.org/2000/svg" width="24.446" height="20.739" viewBox="0 0 24.446 20.739">
  <g id="icons8-whistle_1_" data-name="icons8-whistle (1)" transform="translate(-0.15 0.376)">
    <path id="Path_1567" data-name="Path 1567" d="M14.783,6.294,17.746,1.66M12.874,5.816l.954-2.385M2.856,11.064V13.64M15.5,8.679A5.966,5.966,0,1,1,10.25,17.5,7.422,7.422,0,0,0,5.48,13.736l-.572-.143a5.5,5.5,0,0,0-1.24-.143h0a1.226,1.226,0,0,0-1,.572.994.994,0,0,1-.954.382,1.021,1.021,0,0,1-.811-1L.948,9.633A.957.957,0,0,1,1.9,8.679h9.064v3.339l1.908-3.339Z" transform="translate(0 -1)" fill="none" stroke="#d7d7d7" stroke-linecap="round" stroke-linejoin="round" stroke-miterlimit="10" stroke-width="1.5"/>
    <path id="Path_1568" data-name="Path 1568" d="M45.193,26a1.193,1.193,0,1,0,1.193,1.193A1.193,1.193,0,0,0,45.193,26Z" transform="translate(-22.539 -12.551)" fill="none" stroke="#d7d7d7" stroke-linecap="round" stroke-linejoin="round" stroke-miterlimit="10" stroke-width="1.5"/>
  </g>
</svg>
