<svg xmlns="http://www.w3.org/2000/svg" width="41.5" height="41.506" viewBox="0 0 41.5 41.506"><defs><style>.a{fill:none;stroke:#fff;stroke-linecap:square;stroke-miterlimit:10;stroke-width:1.5px;}.b{fill:#fff;}</style></defs><g transform="translate(44.75 44.751) rotate(180)"><path class="a" d="M32,4A12,12,0,0,1,44,16"/><path class="a" d="M16,44A12,12,0,0,1,4,32"/><path class="a" d="M42.832,30.533l-12.3,12.3a3.985,3.985,0,0,1-5.637,0L5.168,23.1a3.985,3.985,0,0,1,0-5.637l12.3-12.3a3.985,3.985,0,0,1,5.637,0L42.833,24.9a3.983,3.983,0,0,1,0,5.633Z"/><circle class="b" cx="1.5" cy="1.5" r="1.5" transform="translate(14 14)"/></g></svg>